<svg xmlns="http://www.w3.org/2000/svg" fill="none" viewBox="8.78 8.17 29.83 28.34">
<rect width="2.91992" height="2.89986" rx="1.44993" transform="matrix(0.263832 -0.964569 0.952516 0.30449 11.3284 18.4992)" fill="#6FCCC1" data-darkreader-inline-fill="" style="--darkreader-inline-fill:#73c1b7;"/>
<rect width="2.9189" height="2.90304" transform="matrix(0.964569 -0.263832 0.202397 0.979303 19.502 14.7567)" fill="#6FCCC1" data-darkreader-inline-fill="" style="--darkreader-inline-fill:#73c1b7;"/>
<rect width="2.9189" height="2.90304" transform="matrix(0.964569 -0.263832 0.202397 0.979303 22.7652 13.8797)" fill="#6FCCC1" data-darkreader-inline-fill="" style="--darkreader-inline-fill:#73c1b7;"/>
<rect width="2.9189" height="2.90304" transform="matrix(0.964569 -0.263832 0.202397 0.979303 26.0285 13.0027)" fill="#6FCCC1" data-darkreader-inline-fill="" style="--darkreader-inline-fill:#73c1b7;"/>
<rect width="26.0269" height="18.6173" rx="2" transform="matrix(0.964569 -0.263832 0.253769 0.967265 8.78391 18.5005)" fill="#383E52" data-darkreader-inline-fill="" style="--darkreader-inline-fill:#343846;"/>
<rect width="8.08767" height="0.602864" rx="0.301432" transform="matrix(-0.252996 0.967467 -0.970083 -0.242775 15.2704 9.17236)" fill="#383E52" data-darkreader-inline-fill="" style="--darkreader-inline-fill:#b1ada5;"/>
<rect width="15.2029" height="13.7784" rx="2" transform="matrix(0.964569 -0.263832 0.253769 0.967265 10.8874 20.3032)" fill="#6FCCC1" data-darkreader-inline-fill="" style="--darkreader-inline-fill:#337973;"/>
<rect width="1.07703" height="1.04872" rx="0.524359" transform="matrix(0.877194 -0.480136 0.474381 0.880319 14.3136 8.68639)" fill="#6FCCC1" data-darkreader-inline-fill="" style="--darkreader-inline-fill:#73c1b7;"/>
<rect width="13.313" height="11.8493" rx="2" transform="matrix(0.964569 -0.263832 0.253769 0.967265 11.9824 20.9256)" fill="#1E1E1E" data-darkreader-inline-fill="" style="--darkreader-inline-fill:#212223;"/>
<ellipse cx="30.8789" cy="18.0383" rx="1.95174" ry="1.92841" transform="rotate(-45 30.8789 18.0383)" fill="#1E1E1E" data-darkreader-inline-fill="" style="--darkreader-inline-fill:#c7c3bf;"/>
<ellipse cx="32.3841" cy="24.3738" rx="1.95174" ry="1.92841" transform="rotate(-45 32.3841 24.3738)" fill="#252A30" data-darkreader-inline-fill="" style="--darkreader-inline-fill:#c0bcb6;"/>
<rect width="2.43796" height="2.38357" rx="1.19179" transform="matrix(0.964569 -0.263832 0.253769 0.967265 29.4428 17.2017)" fill="#6FCCC1" data-darkreader-inline-fill="" style="--darkreader-inline-fill:#73c1b7;"/>
<rect width="2.43796" height="2.38357" rx="1.19179" transform="matrix(0.964569 -0.263832 0.253769 0.967265 30.948 23.5372)" fill="#6FCCC1" data-darkreader-inline-fill="" style="--darkreader-inline-fill:#73c1b7;"/>
</svg>